<mxfile host="app.diagrams.net" modified="2024-01-08T13:28:03.663Z" agent="Mozilla/5.0 (Windows NT 10.0; Win64; x64) AppleWebKit/537.36 (KHTML, like Gecko) Chrome/120.0.0.0 Safari/537.36" etag="podEknHpcAwOmJpDZPVc" version="22.1.16" type="github">
  <diagram id="prtHgNgQTEPvFCAcTncT" name="Page-1">
    <mxGraphModel dx="989" dy="509" grid="1" gridSize="10" guides="1" tooltips="1" connect="1" arrows="1" fold="1" page="1" pageScale="1" pageWidth="827" pageHeight="1169" math="0" shadow="0">
      <root>
        <mxCell id="0" />
        <mxCell id="1" parent="0" />
        <mxCell id="dNxyNK7c78bLwvsdeMH5-19" value="Pool" style="swimlane;html=1;childLayout=stackLayout;resizeParent=1;resizeParentMax=0;horizontal=0;startSize=20;horizontalStack=0;" parent="1" vertex="1">
          <mxGeometry width="820" height="1100" as="geometry">
            <mxRectangle x="80" y="140" width="40" height="60" as="alternateBounds" />
          </mxGeometry>
        </mxCell>
        <mxCell id="dNxyNK7c78bLwvsdeMH5-35" style="edgeStyle=orthogonalEdgeStyle;rounded=0;orthogonalLoop=1;jettySize=auto;html=1;endArrow=classic;endFill=1;" parent="dNxyNK7c78bLwvsdeMH5-19" source="dNxyNK7c78bLwvsdeMH5-28" target="dNxyNK7c78bLwvsdeMH5-34" edge="1">
          <mxGeometry relative="1" as="geometry" />
        </mxCell>
        <mxCell id="Q70699XJ6f_RQjHT6ZRU-6" value="Icing Prep" style="swimlane;html=1;startSize=20;horizontal=0;" parent="dNxyNK7c78bLwvsdeMH5-19" vertex="1">
          <mxGeometry x="20" width="800" height="260" as="geometry">
            <mxRectangle x="20" width="430" height="30" as="alternateBounds" />
          </mxGeometry>
        </mxCell>
        <mxCell id="Q70699XJ6f_RQjHT6ZRU-7" value="" style="edgeStyle=orthogonalEdgeStyle;rounded=0;orthogonalLoop=1;jettySize=auto;html=1;" parent="Q70699XJ6f_RQjHT6ZRU-6" source="Q70699XJ6f_RQjHT6ZRU-8" target="Q70699XJ6f_RQjHT6ZRU-9" edge="1">
          <mxGeometry relative="1" as="geometry" />
        </mxCell>
        <mxCell id="Q70699XJ6f_RQjHT6ZRU-8" value="Start" style="ellipse;whiteSpace=wrap;html=1;" parent="Q70699XJ6f_RQjHT6ZRU-6" vertex="1">
          <mxGeometry x="20" y="32.5" width="50" height="50" as="geometry" />
        </mxCell>
        <mxCell id="Q70699XJ6f_RQjHT6ZRU-9" value="Whisk egg whites" style="rounded=0;whiteSpace=wrap;html=1;fontFamily=Helvetica;fontSize=12;fontColor=#000000;align=center;" parent="Q70699XJ6f_RQjHT6ZRU-6" vertex="1">
          <mxGeometry x="100" y="32.5" width="100" height="55" as="geometry" />
        </mxCell>
        <mxCell id="Q70699XJ6f_RQjHT6ZRU-10" value="" style="edgeStyle=orthogonalEdgeStyle;rounded=0;orthogonalLoop=1;jettySize=auto;html=1;endArrow=classic;endFill=1;" parent="Q70699XJ6f_RQjHT6ZRU-6" edge="1">
          <mxGeometry relative="1" as="geometry">
            <mxPoint x="200" y="59.760000000000005" as="sourcePoint" />
            <mxPoint x="240" y="59.760000000000005" as="targetPoint" />
          </mxGeometry>
        </mxCell>
        <mxCell id="KDipVioENKlvYmEYNsOE-6" value="" style="edgeStyle=orthogonalEdgeStyle;rounded=0;orthogonalLoop=1;jettySize=auto;html=1;" edge="1" parent="Q70699XJ6f_RQjHT6ZRU-6" source="Q70699XJ6f_RQjHT6ZRU-11" target="KDipVioENKlvYmEYNsOE-5">
          <mxGeometry relative="1" as="geometry" />
        </mxCell>
        <mxCell id="Q70699XJ6f_RQjHT6ZRU-11" value="Mix in sifted icing sugar" style="rounded=0;whiteSpace=wrap;html=1;fontFamily=Helvetica;fontSize=12;fontColor=#000000;align=center;" parent="Q70699XJ6f_RQjHT6ZRU-6" vertex="1">
          <mxGeometry x="240" y="30" width="80" height="60" as="geometry" />
        </mxCell>
        <mxCell id="KDipVioENKlvYmEYNsOE-10" value="" style="edgeStyle=orthogonalEdgeStyle;rounded=0;orthogonalLoop=1;jettySize=auto;html=1;" edge="1" parent="Q70699XJ6f_RQjHT6ZRU-6" source="KDipVioENKlvYmEYNsOE-5" target="KDipVioENKlvYmEYNsOE-9">
          <mxGeometry relative="1" as="geometry" />
        </mxCell>
        <mxCell id="KDipVioENKlvYmEYNsOE-5" value="Add lemon juice and glycerin" style="whiteSpace=wrap;html=1;fontColor=#000000;rounded=0;" vertex="1" parent="Q70699XJ6f_RQjHT6ZRU-6">
          <mxGeometry x="350" y="30" width="120" height="60" as="geometry" />
        </mxCell>
        <mxCell id="KDipVioENKlvYmEYNsOE-12" value="" style="edgeStyle=orthogonalEdgeStyle;rounded=0;orthogonalLoop=1;jettySize=auto;html=1;" edge="1" parent="Q70699XJ6f_RQjHT6ZRU-6" source="KDipVioENKlvYmEYNsOE-9" target="KDipVioENKlvYmEYNsOE-11">
          <mxGeometry relative="1" as="geometry" />
        </mxCell>
        <mxCell id="KDipVioENKlvYmEYNsOE-9" value="Beat until stiff" style="whiteSpace=wrap;html=1;fontColor=#000000;rounded=0;" vertex="1" parent="Q70699XJ6f_RQjHT6ZRU-6">
          <mxGeometry x="500" y="30" width="120" height="60" as="geometry" />
        </mxCell>
        <mxCell id="KDipVioENKlvYmEYNsOE-17" value="" style="edgeStyle=orthogonalEdgeStyle;rounded=0;orthogonalLoop=1;jettySize=auto;html=1;" edge="1" parent="Q70699XJ6f_RQjHT6ZRU-6" source="KDipVioENKlvYmEYNsOE-11" target="KDipVioENKlvYmEYNsOE-16">
          <mxGeometry relative="1" as="geometry">
            <Array as="points">
              <mxPoint x="710" y="110" />
              <mxPoint x="90" y="110" />
            </Array>
          </mxGeometry>
        </mxCell>
        <mxCell id="KDipVioENKlvYmEYNsOE-11" value="Is it stiff?" style="rhombus;whiteSpace=wrap;html=1;fontColor=#000000;rounded=0;" vertex="1" parent="Q70699XJ6f_RQjHT6ZRU-6">
          <mxGeometry x="670" y="20" width="80" height="80" as="geometry" />
        </mxCell>
        <mxCell id="KDipVioENKlvYmEYNsOE-19" value="" style="edgeStyle=orthogonalEdgeStyle;rounded=0;orthogonalLoop=1;jettySize=auto;html=1;" edge="1" parent="Q70699XJ6f_RQjHT6ZRU-6" source="KDipVioENKlvYmEYNsOE-16" target="KDipVioENKlvYmEYNsOE-18">
          <mxGeometry relative="1" as="geometry" />
        </mxCell>
        <mxCell id="KDipVioENKlvYmEYNsOE-16" value="Cover surface of icing tightly with cling film" style="whiteSpace=wrap;html=1;fontColor=#000000;rounded=0;" vertex="1" parent="Q70699XJ6f_RQjHT6ZRU-6">
          <mxGeometry x="30" y="180" width="120" height="60" as="geometry" />
        </mxCell>
        <mxCell id="KDipVioENKlvYmEYNsOE-18" value="Keep in cool place until needed" style="ellipse;whiteSpace=wrap;html=1;fontColor=#000000;rounded=0;" vertex="1" parent="Q70699XJ6f_RQjHT6ZRU-6">
          <mxGeometry x="250" y="170" width="80" height="80" as="geometry" />
        </mxCell>
        <mxCell id="KDipVioENKlvYmEYNsOE-21" style="edgeStyle=orthogonalEdgeStyle;rounded=0;orthogonalLoop=1;jettySize=auto;html=1;exitX=0.5;exitY=0;exitDx=0;exitDy=0;entryX=0.431;entryY=-0.041;entryDx=0;entryDy=0;entryPerimeter=0;" edge="1" parent="Q70699XJ6f_RQjHT6ZRU-6" source="KDipVioENKlvYmEYNsOE-11" target="KDipVioENKlvYmEYNsOE-9">
          <mxGeometry relative="1" as="geometry">
            <Array as="points">
              <mxPoint x="710" y="10" />
              <mxPoint x="552" y="10" />
            </Array>
          </mxGeometry>
        </mxCell>
        <mxCell id="KDipVioENKlvYmEYNsOE-22" value="No" style="text;html=1;align=center;verticalAlign=middle;resizable=0;points=[];autosize=1;strokeColor=none;fillColor=none;" vertex="1" parent="Q70699XJ6f_RQjHT6ZRU-6">
          <mxGeometry x="610" y="2.5" width="40" height="30" as="geometry" />
        </mxCell>
        <mxCell id="dNxyNK7c78bLwvsdeMH5-21" value="Ingredients Prep" style="swimlane;html=1;startSize=20;horizontal=0;" parent="dNxyNK7c78bLwvsdeMH5-19" vertex="1">
          <mxGeometry x="20" y="260" width="800" height="120" as="geometry">
            <mxRectangle x="20" y="120" width="430" height="30" as="alternateBounds" />
          </mxGeometry>
        </mxCell>
        <mxCell id="dNxyNK7c78bLwvsdeMH5-29" value="" style="edgeStyle=orthogonalEdgeStyle;rounded=0;orthogonalLoop=1;jettySize=auto;html=1;endArrow=classic;endFill=1;" parent="dNxyNK7c78bLwvsdeMH5-21" source="dNxyNK7c78bLwvsdeMH5-26" target="dNxyNK7c78bLwvsdeMH5-28" edge="1">
          <mxGeometry relative="1" as="geometry" />
        </mxCell>
        <mxCell id="dNxyNK7c78bLwvsdeMH5-26" value="" style="rounded=0;whiteSpace=wrap;html=1;fontFamily=Helvetica;fontSize=12;fontColor=#000000;align=center;" parent="dNxyNK7c78bLwvsdeMH5-21" vertex="1">
          <mxGeometry x="50" y="30" width="80" height="60" as="geometry" />
        </mxCell>
        <mxCell id="dNxyNK7c78bLwvsdeMH5-28" value="" style="rhombus;whiteSpace=wrap;html=1;fontFamily=Helvetica;fontSize=12;fontColor=#000000;align=center;" parent="dNxyNK7c78bLwvsdeMH5-21" vertex="1">
          <mxGeometry x="260" y="40" width="40" height="40" as="geometry" />
        </mxCell>
        <mxCell id="dNxyNK7c78bLwvsdeMH5-22" value="Bake" style="swimlane;html=1;startSize=20;horizontal=0;" parent="dNxyNK7c78bLwvsdeMH5-19" vertex="1">
          <mxGeometry x="20" y="380" width="800" height="120" as="geometry" />
        </mxCell>
        <mxCell id="dNxyNK7c78bLwvsdeMH5-37" value="" style="edgeStyle=orthogonalEdgeStyle;rounded=0;orthogonalLoop=1;jettySize=auto;html=1;endArrow=classic;endFill=1;" parent="dNxyNK7c78bLwvsdeMH5-22" source="dNxyNK7c78bLwvsdeMH5-34" target="dNxyNK7c78bLwvsdeMH5-36" edge="1">
          <mxGeometry relative="1" as="geometry" />
        </mxCell>
        <mxCell id="dNxyNK7c78bLwvsdeMH5-34" value="" style="rounded=0;whiteSpace=wrap;html=1;fontFamily=Helvetica;fontSize=12;fontColor=#000000;align=center;" parent="dNxyNK7c78bLwvsdeMH5-22" vertex="1">
          <mxGeometry x="240" y="20" width="80" height="60" as="geometry" />
        </mxCell>
        <mxCell id="dNxyNK7c78bLwvsdeMH5-36" value="" style="rhombus;whiteSpace=wrap;html=1;fontFamily=Helvetica;fontSize=12;fontColor=#000000;align=center;" parent="dNxyNK7c78bLwvsdeMH5-22" vertex="1">
          <mxGeometry x="360" y="30" width="40" height="40" as="geometry" />
        </mxCell>
        <mxCell id="Q70699XJ6f_RQjHT6ZRU-13" value="Post-Bake" style="swimlane;html=1;startSize=20;horizontal=0;" parent="dNxyNK7c78bLwvsdeMH5-19" vertex="1">
          <mxGeometry x="20" y="500" width="800" height="120" as="geometry" />
        </mxCell>
        <mxCell id="Q70699XJ6f_RQjHT6ZRU-14" value="" style="edgeStyle=orthogonalEdgeStyle;rounded=0;orthogonalLoop=1;jettySize=auto;html=1;endArrow=classic;endFill=1;" parent="Q70699XJ6f_RQjHT6ZRU-13" source="Q70699XJ6f_RQjHT6ZRU-15" target="Q70699XJ6f_RQjHT6ZRU-16" edge="1">
          <mxGeometry relative="1" as="geometry" />
        </mxCell>
        <mxCell id="Q70699XJ6f_RQjHT6ZRU-15" value="" style="rounded=0;whiteSpace=wrap;html=1;fontFamily=Helvetica;fontSize=12;fontColor=#000000;align=center;" parent="Q70699XJ6f_RQjHT6ZRU-13" vertex="1">
          <mxGeometry x="240" y="20" width="80" height="60" as="geometry" />
        </mxCell>
        <mxCell id="Q70699XJ6f_RQjHT6ZRU-16" value="" style="rhombus;whiteSpace=wrap;html=1;fontFamily=Helvetica;fontSize=12;fontColor=#000000;align=center;" parent="Q70699XJ6f_RQjHT6ZRU-13" vertex="1">
          <mxGeometry x="360" y="30" width="40" height="40" as="geometry" />
        </mxCell>
        <mxCell id="VdWjAupCURGEq7SwctO9-16" value="Covering Prep" style="swimlane;html=1;startSize=20;horizontal=0;" parent="dNxyNK7c78bLwvsdeMH5-19" vertex="1">
          <mxGeometry x="20" y="620" width="800" height="120" as="geometry" />
        </mxCell>
        <mxCell id="VdWjAupCURGEq7SwctO9-17" value="Marzipan Application" style="swimlane;html=1;startSize=20;horizontal=0;" parent="dNxyNK7c78bLwvsdeMH5-19" vertex="1">
          <mxGeometry x="20" y="740" width="800" height="120" as="geometry" />
        </mxCell>
        <mxCell id="VdWjAupCURGEq7SwctO9-18" value="Icing Prep" style="swimlane;html=1;startSize=20;horizontal=0;" parent="dNxyNK7c78bLwvsdeMH5-19" vertex="1">
          <mxGeometry x="20" y="860" width="800" height="120" as="geometry" />
        </mxCell>
        <mxCell id="VdWjAupCURGEq7SwctO9-19" value="Icing" style="swimlane;html=1;startSize=20;horizontal=0;" parent="dNxyNK7c78bLwvsdeMH5-19" vertex="1">
          <mxGeometry x="20" y="980" width="800" height="120" as="geometry" />
        </mxCell>
        <mxCell id="KDipVioENKlvYmEYNsOE-20" value="Yes" style="text;html=1;align=center;verticalAlign=middle;resizable=0;points=[];autosize=1;strokeColor=none;fillColor=none;" vertex="1" parent="1">
          <mxGeometry x="390" y="108" width="40" height="30" as="geometry" />
        </mxCell>
      </root>
    </mxGraphModel>
  </diagram>
</mxfile>
